<?xml version="1.0" encoding="UTF-8"?><svg id="Layer_1" xmlns="http://www.w3.org/2000/svg" viewBox="0 0 282.36 480.88"><defs><style>.cls-1{stroke:#000;stroke-miterlimit:10;stroke-width:.25px;}</style></defs><path class="cls-1" d="M138.42,422.88c-20.08,0-39.99-2.73-59.72-8.19-19.74-5.46-36.78-14.68-51.12-27.66-7.24-6.69-13.62-14.78-19.16-24.28-5.53-9.49-8.3-19.02-8.3-28.58,0-9.01,3-16.15,9.01-21.41,6.01-5.26,13.73-7.89,23.15-7.89,14.34,0,24.99,7.31,31.96,21.92,3.28,9.7,8.47,17.62,15.57,23.77,7.1,6.15,15.74,10.72,25.92,13.73,10.17,3.01,21.48,4.51,33.91,4.51,8.88,0,17.72-.82,26.53-2.46s16.87-4.27,24.18-7.89c7.31-3.62,13.11-8.43,17.41-14.44,4.3-6.01,6.45-13.38,6.45-22.13,0-9.83-2.46-17.79-7.38-23.87-4.92-6.08-12.33-11.06-22.23-14.96-9.9-3.89-22.23-7.48-36.98-10.76l-39.34-8.6c-19.12-4.23-36.74-10.31-52.86-18.23-16.12-7.92-29.03-18.54-38.72-31.86-9.7-13.32-14.55-30.15-14.55-50.5,0-17.34,3.72-32.61,11.17-45.79,7.44-13.18,17.58-24.18,30.42-32.98,12.84-8.81,27.38-15.4,43.64-19.77,16.25-4.37,33.19-6.56,50.81-6.56s34.52,2.19,50.71,6.56c16.19,4.37,30.9,11.41,44.15,21.1,11.06,7.24,20.52,16.32,28.38,27.25,7.85,10.93,11.78,22.47,11.78,34.62,0,8.6-2.94,15.16-8.81,19.67-5.87,4.51-13.04,6.76-21.51,6.76-7.92,0-14.55-1.88-19.87-5.63-5.33-3.75-9.9-8.98-13.73-15.67-3.01-6.97-6.8-12.97-11.37-18.03-4.58-5.05-9.87-9.25-15.88-12.6-6.01-3.35-12.64-5.84-19.87-7.48-7.24-1.64-14.96-2.46-23.15-2.46-9.29,0-18.1.96-26.43,2.87-8.33,1.91-15.64,4.75-21.92,8.5-6.28,3.76-11.24,8.44-14.85,14.03-3.62,5.6-5.43,12.02-5.43,19.26,0,8.88,2.56,16.36,7.68,22.43,5.12,6.08,12.4,11.2,21.82,15.37,9.42,4.17,20.69,7.68,33.8,10.55l39.34,9.01c15.02,3.28,29.09,7.41,42.2,12.4,13.11,4.99,24.72,11.27,34.83,18.85,10.11,7.58,17.99,17,23.66,28.27,5.67,11.27,8.5,24.89,8.5,40.87,0,18.17-3.86,34.04-11.58,47.63-7.72,13.59-18.27,24.89-31.65,33.91-13.39,9.01-28.72,15.74-45.99,20.18-17.28,4.44-35.48,6.66-54.6,6.66Z"/><path d="M139.85,480.88c-9.67,0-17.5-7.83-17.5-17.5V17.5c0-9.67,7.83-17.5,17.5-17.5s17.5,7.83,17.5,17.5v445.88c0,9.67-7.83,17.5-17.5,17.5Z"/></svg>